# Blender 3.6.1 Release Candidate
# www.blender.org
mtllib ring_jimen.mtl
o ring_jimen
v -5.000000 -0.800000 5.000000
v -5.000000 0.000000 5.000000
v -5.000000 -0.800000 -5.000000
v -5.000000 0.000000 -5.000000
v 5.000000 -0.800000 5.000000
v 5.000000 0.000000 5.000000
v 5.000000 -0.800000 -5.000000
v 5.000000 0.000000 -5.000000
vn -1.0000 -0.0000 -0.0000
vn -0.0000 -0.0000 -1.0000
vn 1.0000 -0.0000 -0.0000
vn -0.0000 -0.0000 1.0000
vn -0.0000 -1.0000 -0.0000
vn -0.0000 1.0000 -0.0000
vt 0.000000 0.000000
vt 0.500000 0.333333
vt 0.000000 0.333333
vt 0.500000 0.666667
vt 0.000000 0.666667
vt 1.000000 0.000000
vt 1.000000 0.333333
vt 1.000000 0.666667
vt 0.000000 1.000000
vt 0.500000 1.000000
vt 1.000000 1.000000
vt 0.500000 0.000000
vt 0.500000 0.333333
s 0
usemtl mtr_jimen
f 2/1/1 3/2/1 1/3/1
f 4/3/2 7/4/2 3/5/2
f 8/2/3 5/6/3 7/7/3
f 6/4/4 1/7/4 5/8/4
f 7/9/5 1/4/5 3/10/5
f 4/10/6 6/8/6 8/11/6
f 2/1/1 4/12/1 3/2/1
f 4/3/2 8/2/2 7/4/2
f 8/2/3 6/12/3 5/6/3
f 6/4/4 2/13/4 1/7/4
f 7/9/5 5/5/5 1/4/5
f 4/10/6 2/4/6 6/8/6
